<svg id="Group_11" data-name="Group 11" xmlns="http://www.w3.org/2000/svg" width="27.277" height="27.278" viewBox="0 0 27.277 27.278">
  <path id="Path_39" data-name="Path 39" d="M1294.533,1289.626a4.546,4.546,0,1,1-4.546-4.546A4.546,4.546,0,0,1,1294.533,1289.626Z" transform="translate(-1276.347 -1275.988)" fill="#0f0e17"/>
  <path id="Path_40" data-name="Path 40" d="M883.365,863.825a7.567,7.567,0,0,0-7.933-7.934c-1.455-.066-1.919-.082-5.623-.082s-4.168.016-5.624.082a7.566,7.566,0,0,0-7.933,7.933c-.066,1.455-.082,1.919-.082,5.623s.016,4.169.082,5.623a7.567,7.567,0,0,0,7.933,7.933c1.455.066,1.919.082,5.623.082s4.168-.016,5.624-.082a7.567,7.567,0,0,0,7.933-7.934c.066-1.454.082-1.919.082-5.623S883.432,865.28,883.365,863.825Zm-13.557,12.627a7,7,0,1,1,7-7A7,7,0,0,1,869.809,876.452Zm7.281-12.647a1.637,1.637,0,1,1,1.637-1.637A1.637,1.637,0,0,1,877.089,863.8Z" transform="translate(-856.17 -855.81)" fill="#0f0e17"/>
</svg>
