<svg id="Group_76" data-name="Group 76" xmlns="http://www.w3.org/2000/svg" width="64" height="64" viewBox="0 0 64 64">
  <path id="Path_91" data-name="Path 91" d="M32,0A32,32,0,1,0,64,32,32.094,32.094,0,0,0,32,0ZM46.7,46.2a1.8,1.8,0,0,1-2.7.6c-7.5-4.6-17-5.6-28.2-3a1.965,1.965,0,0,1-1-3.8c12.2-2.7,22.7-1.6,31,3.5A1.877,1.877,0,0,1,46.7,46.2Zm3.9-8.8a2.459,2.459,0,0,1-3.4.8c-8.6-5.3-21.8-6.9-31.8-3.7A2.4,2.4,0,1,1,14,29.9c11.7-3.5,26.1-1.8,36,4.3A2.312,2.312,0,0,1,50.6,37.4Zm.3-8.9c-10.2-6.1-27.4-6.7-37.1-3.7A2.941,2.941,0,0,1,12,19.2c11.4-3.4,30.1-2.7,41.9,4.3A3.157,3.157,0,0,1,55,27.7,3.306,3.306,0,0,1,50.9,28.5Z" fill="#0f0e17"/>
</svg>
