<svg id="Group_12" data-name="Group 12" xmlns="http://www.w3.org/2000/svg" width="28.836" height="23.429" viewBox="0 0 28.836 23.429">
  <path id="Path_41" data-name="Path 41" d="M28.836,8.794a12.576,12.576,0,0,1-3.379.946A5.957,5.957,0,0,0,28.07,6.451a11.74,11.74,0,0,1-3.74,1.442A6.026,6.026,0,0,0,19.96,6a5.894,5.894,0,0,0-5.9,5.9,6.877,6.877,0,0,0,.135,1.352A16.669,16.669,0,0,1,2.028,7.081a5.991,5.991,0,0,0-.811,2.974A5.84,5.84,0,0,0,3.83,14.966a6.285,6.285,0,0,1-2.658-.721v.09A5.906,5.906,0,0,0,5.9,20.148a6.06,6.06,0,0,1-1.577.225,9.485,9.485,0,0,1-1.126-.09,5.929,5.929,0,0,0,5.542,4.1A11.969,11.969,0,0,1,1.4,26.906a13.644,13.644,0,0,1-1.4-.09,17.167,17.167,0,0,0,9.056,2.613c10.9,0,16.851-9.011,16.851-16.851v-.766A12.442,12.442,0,0,0,28.836,8.794Z" transform="translate(0 -6)" fill="#0f0e17"/>
</svg>
