<svg xmlns="http://www.w3.org/2000/svg" width="30.645" height="38" viewBox="0 0 30.645 38">
  <g id="Group_50" data-name="Group 50" transform="translate(-7 -1)">
    <path id="Path_80" data-name="Path 80" d="M26,39H18.645A11.658,11.658,0,0,0,7,50.645a.614.614,0,0,0,.364.56c.23.1,5.741,2.5,14.959,2.5s14.729-2.4,14.959-2.5a.614.614,0,0,0,.364-.56A11.658,11.658,0,0,0,26,39Z" transform="translate(0 -14.71)" fill="#191821"/>
    <path id="Path_81" data-name="Path 81" d="M26.194,20.613c5.262,0,9.194-5.5,9.194-10.419a9.194,9.194,0,1,0-18.387,0C17,15.112,20.932,20.613,26.194,20.613Z" transform="translate(-3.871)" fill="#191821"/>
  </g>
</svg>
