<svg xmlns="http://www.w3.org/2000/svg" width="64.12" height="55.213" viewBox="0 0 64.12 55.213">
  <g id="Group_76" data-name="Group 76" transform="translate(0.1 -4.487)">
    <path id="Path_91" data-name="Path 91" d="M64,17.1c-.3,6.2-4.6,14.8-13.1,25.6-8.7,11.3-16.1,17-22.1,17-3.7,0-6.9-3.4-9.5-10.3-1.7-6.3-3.4-12.6-5.2-18.9-1.9-6.9-4-10.3-6.2-10.3-.5,0-2.2,1-5,3l-3-3.9c3.2-2.8,6.3-5.5,9.3-8.3,4.2-3.6,7.4-5.6,9.5-5.7,5-.5,8,2.9,9.2,10.2,1.2,7.9,2.1,12.8,2.6,14.7,1.4,6.5,3,9.8,4.7,9.8,1.3,0,3.4-2.1,6-6.3,2.7-4.2,4.1-7.4,4.3-9.7.4-3.7-1.1-5.5-4.3-5.5a13.687,13.687,0,0,0-4.7,1c3.1-10.3,9.2-15.3,18-15C61.2,4.5,64.3,8.8,64,17.1Z" fill="#0f0e17"/>
  </g>
</svg>
