<svg id="Group_10" data-name="Group 10" xmlns="http://www.w3.org/2000/svg" width="30.395" height="21.419" viewBox="0 0 30.395 21.419">
  <path id="Path_38" data-name="Path 38" d="M30.11,14.107a6.723,6.723,0,0,0-1.187-3.039,4.336,4.336,0,0,0-3.039-1.282C21.561,9.5,15.2,9.5,15.2,9.5h0s-6.364,0-10.638.285A4.266,4.266,0,0,0,1.52,11.067,6.541,6.541,0,0,0,.332,14.107,42.431,42.431,0,0,0,0,19.046v2.327a49.382,49.382,0,0,0,.285,4.939,6.723,6.723,0,0,0,1.187,3.039,5.029,5.029,0,0,0,3.372,1.282c2.422.237,10.353.285,10.353.285s6.364,0,10.638-.332A4.266,4.266,0,0,0,28.875,29.3a6.541,6.541,0,0,0,1.187-3.039,42.431,42.431,0,0,0,.332-4.939V19C30.395,16.576,30.11,14.107,30.11,14.107ZM12.063,24.128V15.579l8.216,4.274Z" transform="translate(0 -9.5)" fill="#0f0e17"/>
</svg>
